<svg width="56" height="56" viewBox="0 0 56 56" fill="none" xmlns="http://www.w3.org/2000/svg">
<rect x="0.69898" y="0.69898" width="54.5204" height="54.5204" rx="16.0765" fill="url(#paint0_linear_529_33069)"/>
<rect x="0.69898" y="0.69898" width="54.5204" height="54.5204" rx="16.0765" stroke="url(#paint1_linear_529_33069)" stroke-width="1.39796"/>
<path d="M36.6074 15.847C38.3445 15.847 39.7528 17.2555 39.7529 18.9926V37.8646C39.7529 39.6017 38.3446 41.0101 36.6074 41.0101H20.252C18.5149 41.0101 17.1065 39.6017 17.1064 37.8646V18.9926C17.1066 17.2555 18.5149 15.8471 20.252 15.847H36.6074ZM20.8809 33.7133V36.2299H35.9785V33.7133H20.8809ZM20.8809 27.4222V29.9388H32.2041V27.4222H20.8809ZM20.8809 21.1322V23.6478H27.6748V21.1322H20.8809Z" fill="white"/>
<defs>
<linearGradient id="paint0_linear_529_33069" x1="-71.877" y1="24.8641" x2="106.24" y2="19.4141" gradientUnits="userSpaceOnUse">
<stop stop-color="#FFEBEA"/>
<stop offset="0.447558" stop-color="#CBEAFF"/>
<stop offset="0.616371" stop-color="#FBD0CD"/>
<stop offset="0.778992" stop-color="#B9EDBA"/>
<stop offset="0.95" stop-color="#B9EDBA"/>
<stop offset="1" stop-color="#FCFEFF"/>
</linearGradient>
<linearGradient id="paint1_linear_529_33069" x1="-71.877" y1="24.8641" x2="106.24" y2="19.4141" gradientUnits="userSpaceOnUse">
<stop stop-color="#FFEBEA"/>
<stop offset="0.447558" stop-color="#CBEAFF"/>
<stop offset="0.616371" stop-color="#FBD0CD"/>
<stop offset="0.778992" stop-color="#B9EDBA"/>
<stop offset="0.95" stop-color="#B9EDBA"/>
<stop offset="1" stop-color="#FCFEFF"/>
</linearGradient>
</defs>
</svg>
